PathFileType	4	(X/Y/Z)	D:\TRACE\spotREDO_2-26-24\spot_justBody_Motion_3_3-v60.trc
DataRate	CameraRate	NumFrames	NumMarkers	Units	OrigDataRate	OrigDataStartFrame	OrigNumFrames
100.00	100.00	      17	9	mm	100.00	6126	      7000
Frame#	Time	front left toe			Front right toe			aft left toe			aft right toe			Arm			FL body			FR body			AL Body			AR Body			
		X1	Y1	Z1	X2	Y2	Z2	X3	Y3	Z3	X4	Y4	Z4	X5	Y5	Z5	X6	Y6	Z6	X7	Y7	Z7	X8	Y8	Z8	X9	Y9	Z9	

6126	61.250	-401.20816	27.19509	-155.19487	172.58298	28.09540	-225.95705	-323.30692	18.64151	389.81073	246.78586	23.68916	309.41989	-119.24828	811.05237	-355.17288	-202.72255	552.72266	-320.99591	-48.86880	554.78754	-345.65359	-72.11423	556.00720	553.32727	67.94117	558.60193	533.29272	
6127	61.260	-401.43335	27.36031	-155.07686	172.30855	28.17590	-225.97929	-323.64471	18.51566	389.93219	246.43520	23.52144	309.45609	-118.86639	810.92786	-354.70584	-202.63312	552.81091	-320.45184	-48.45815	554.54211	-344.84534	-71.70461	556.07843	553.92365	68.15931	558.61255	533.80560	
6128	61.270	-401.61526	27.40413	-154.96968	172.06900	28.08070	-225.96188	-323.87811	18.43273	389.99649	246.15051	23.42719	309.45993	-118.25793	810.78247	-353.98468	-202.37833	552.62830	-319.48666	-48.26616	554.41858	-344.26770	-71.32416	556.07104	554.51575	68.40523	558.63501	534.60583	
6129	61.280	-401.80151	27.51447	-154.87613	171.83156	28.18773	-225.83792	-324.10678	18.31648	390.04736	245.82570	23.29227	309.46078	-118.14951	810.83545	-353.28857	-201.97003	552.60016	-318.98920	-48.13743	554.41687	-343.71796	-71.04022	556.10504	555.34216	68.66418	558.35583	535.19818	
6130	61.290	-401.97787	27.56454	-154.89189	171.73766	28.35064	-225.67697	-324.23172	18.19712	390.12045	245.55634	23.13691	309.51892	-117.91083	810.79175	-352.65201	-201.68364	552.72784	-318.51001	-47.76010	554.36310	-342.85110	-70.88705	556.11194	555.84418	68.89268	558.51929	535.93097	
6131	61.300	-402.39542	27.79597	-154.73920	171.48911	28.27508	-225.56412	-324.43375	18.06018	390.17572	245.30026	23.05124	309.59122	-117.47555	810.88861	-351.86285	-201.51524	552.77563	-317.58621	-47.75863	554.35406	-342.22784	-70.58714	556.05811	556.56470	69.00974	558.34430	536.69080	
6132	61.310	-402.86166	27.97197	-154.60257	171.22054	28.21219	-225.37343	-324.81955	17.89640	390.26163	245.00626	22.77332	309.68387	-117.36923	810.86810	-351.38522	-201.57013	552.83636	-316.98007	-46.98704	554.36707	-341.65115	-70.41834	556.07721	557.39417	69.44339	558.18268	537.33240	
6133	61.320	-403.22153	28.09562	-154.53014	170.87624	28.31209	-225.20131	-325.08691	17.78831	390.25510	244.82529	22.60744	309.80283	-116.76348	810.82538	-350.35461	-201.33447	552.90381	-316.29471	-46.61288	554.39740	-340.71487	-70.09757	556.04126	558.03247	69.78479	558.08472	538.04755	
6134	61.330	-403.32578	28.17896	-154.46716	170.64093	28.34744	-225.17451	-325.27640	17.64734	390.35422	244.71986	22.50343	310.01303	-116.52988	810.82831	-349.75330	-201.06226	553.01630	-315.50879	-46.55938	554.31116	-340.08566	-69.81730	556.00214	558.85315	70.06940	557.98407	538.85767	
6135	61.340	-403.49997	28.24538	-154.31917	170.38731	28.59276	-225.01833	-325.47961	17.45787	390.45782	244.69356	22.48058	310.14145	-116.15466	810.92004	-348.94183	-201.02817	553.06250	-314.77203	-46.52514	554.23248	-339.37317	-69.69606	556.00970	559.61224	70.16013	557.87756	539.52155	
6136	61.350	-403.62579	28.26200	-154.26523	169.87013	28.60340	-224.99820	-325.65884	17.23678	390.48679	244.36153	22.39941	310.24847	-115.66006	810.84247	-347.89722	-200.83379	553.19336	-313.70422	-46.17713	554.20917	-338.38004	-69.38634	555.96149	560.33630	70.56783	557.75861	540.33081	
6137	61.360	-403.78912	28.32074	-154.13342	169.60162	28.61267	-224.90630	-325.98923	17.17922	390.45209	244.07698	22.26289	310.41583	-115.46085	811.00433	-347.27026	-200.52769	553.08679	-312.93442	-45.87737	554.27863	-337.59451	-69.22955	555.91620	561.14166	70.81058	557.61884	541.07098	
6138	61.370	-404.03375	28.50636	-154.04895	169.28326	28.72483	-224.79544	-326.20010	17.09256	390.48361	243.65469	22.10157	310.37833	-115.29406	811.14313	-346.48618	-200.57864	553.45538	-312.37030	-45.58998	554.36615	-336.92834	-69.08792	555.85803	561.96490	70.81488	557.45386	541.98053	
6139	61.380	-404.27795	28.53183	-153.94537	169.18456	28.82628	-224.69177	-326.37283	16.89544	390.63541	243.29198	21.95448	310.41324	-114.95290	811.36627	-345.52713	-201.08000	554.25739	-312.33139	-45.63486	554.43585	-336.00934	-68.68824	555.68506	562.88055	71.21644	557.37756	542.73364	
6140	61.390	-404.66022	28.70235	-153.80241	169.07079	28.96661	-224.69963	-326.61685	16.79606	390.71298	243.01913	21.90259	310.48080	-114.95875	811.67096	-344.76453	-200.11305	553.67053	-310.64679	-46.30701	554.70648	-335.10080	-68.54820	555.60999	563.53235	71.37262	557.33496	543.50641	
6141	61.400	-405.04816	28.86898	-153.67986	169.19200	28.86164	-224.60611	-326.79361	16.69695	390.78958	242.96049	21.87824	310.45203	-114.50378	811.77045	-343.52054	-200.22031	554.05408	-309.57907	-46.35217	554.90198	-334.43634	-68.36623	555.52863	564.56476	71.67270	557.07623	544.48120	
6142	61.410	-405.16486	28.80206	-153.52510	169.14207	28.87771	-224.58496	-326.93271	16.61036	390.80829	242.82521	21.83190	310.52386	-114.53072	812.01855	-342.80768	-200.19003	554.34302	-308.78555	-45.26965	554.88379	-333.45779	-68.26263	555.52020	565.24219	71.94038	557.14832	545.22253	
